<svg height="298pt" preserveAspectRatio="xMidYMid meet" viewBox="0 0 298 298" width="298pt" xmlns="http://www.w3.org/2000/svg"><g transform="matrix(.1 0 0 -.1 0 298)"><path d="m1397 2914c-1-1-24-5-52-8-433-55-809-293-1038-659-92-147-176-369-193-512-4-27-9-54-11-58-9-16-11-252-2-332 59-538 429-1004 941-1183 157-56 287-77 468-77 148 0 224 9 343 39 638 162 1082 735 1071 1384-3 240-43 408-144 617-124 258-354 494-610 627-130 68-298 126-415 143-22 3-54 8-71 11-28 5-282 12-287 8zm198-198c50-3 101-8 115-11s40-8 59-11c113-19 298-98 426-183 91-59 268-237 327-326 74-115 154-288 172-378 3-12 8-33 11-47s8-41 11-60 7-46 10-60c5-33 6-248 0-280-3-14-7-43-11-64-28-194-127-410-259-571-113-136-280-269-414-327-26-11-65-28-87-38s-60-24-85-31-49-14-55-15c-5-2-48-10-95-19-250-47-544-2-770 118-366 194-592 519-655 942-8 51-7 236 1 295 35 259 148 497 327 686 104 110 213 191 351 259 151 74 262 105 431 121 39 4 72 8 73 10 2 1 9 1 15-1 7-2 53-6 102-9z"/><path d="m713 2019c-14-5-16-60-17-558l-1-553 295 4c269 4 300 7 347 25 112 45 181 108 231 214 50 104 62 175 58 334-6 197-40 301-132 404-76 85-171 124-314 130-128 6-451 6-467 0zm518-205c61-18 112-70 139-141 17-46 23-84 25-183 4-211-31-317-122-362-43-20-65-23-198-26l-150-4v367 366l130-2c76-1 149-7 176-15z"/><path d="m2303 1998c-42-31-415-333-467-380l-41-36v-119l-1-118 31-26c81-71 489-401 501-406 10-4 12 25 11 136l-2 141-179 133c-99 72-181 137-182 142-2 6 79 68 180 140l184 130v142c0 79-1 143-2 143s-16-10-33-22z"/></g></svg>